<svg id="Camada_1" data-name="Camada 1" xmlns="http://www.w3.org/2000/svg" viewBox="0 0 841.89 595.28"><path d="M565,399.15v-.06s0,0,.06,0,0,.09-.06.16Zm-9.16-115.67c-5.79-8.94-11.86-18.16-13.62-28.86-2-11.8,2.58-24,3.81-35.74,2.51-24.33,3.46-57.49-7.46-80-9.6-19.7-30.93-30.78-52.27-31.09-44-.63-88-.47-132,0-25.52.28-48.84,16-54.35,39.93-7.45,32.19-6.92,65.45,0,97.71,2.27,10.32,1.61,16.27-4.75,24.26C245.49,332.38,250,422.44,304.9,479.52c5.6,5.88,11.27,8.37,19.35,8.28,32.45-.38,64.89-.13,97.33-.13,31.94,0,63.91-.25,95.91.19,8.15.09,13.76-2.64,19.26-8.43C587.45,426.91,596.16,345.6,555.88,283.48Zm-49-75.4a31.33,31.33,0,0,1-31.34,31.31H366.29A31.31,31.31,0,0,1,335,208.08V185.24a31.29,31.29,0,0,1,31.31-31.31H475.58a31.31,31.31,0,0,1,31.34,31.31Z"/></svg>