<svg id="Camada_1" data-name="Camada 1" xmlns="http://www.w3.org/2000/svg" viewBox="0 0 841.89 595.28"><defs><style>.cls-1{fill:#fff;}</style></defs><path class="cls-1" d="M150,331.91h55.21a4.24,4.24,0,0,1,4.24,4.24V407.5h51.44a4.23,4.23,0,0,1,4.24,4.23V453.3H337V329.39H511.37V453.3H579.1V416.42a4.24,4.24,0,0,1,4.24-4.24h48.55V328.65a4.24,4.24,0,0,1,4.24-4.24h55.8a7.82,7.82,0,0,0,7.82-7.82V275.86a7.83,7.83,0,0,0-7.82-7.83h-55.8a4.23,4.23,0,0,1-4.24-4.23V185.11H579.18a4.24,4.24,0,0,1-4.24-4.24v-36H506.16V269.62H333.88V144.88H262.21V181.2a4.23,4.23,0,0,1-4.23,4.24H209.41v82a4.23,4.23,0,0,1-4.24,4.23H150a7.83,7.83,0,0,0-7.82,7.83v44.63A7.82,7.82,0,0,0,150,331.91Z"/></svg>