<svg id="Camada_1" data-name="Camada 1" xmlns="http://www.w3.org/2000/svg" viewBox="0 0 841.89 595.28"><path d="M479.54,183.08V159.26h8.07a17,17,0,0,0,17-16.95V124.4a17,17,0,0,0-17-17H355.32a17,17,0,0,0-17,17v17.91a17,17,0,0,0,17,16.95h7v23.82A58.13,58.13,0,0,0,307.59,241V429.88a58.13,58.13,0,0,0,58,58H476.32a58.16,58.16,0,0,0,58-58V241A58.17,58.17,0,0,0,479.54,183.08ZM454.62,347.92q-12.57,29.46-25.31,59c-1.77,4-2.85,9.94-9.17,8.35-5.95-1.51-4.78-7.21-4.87-11.7-.16-6-.07-12.12-.07-18.16V384c0-25.53,0-25.81-24.92-27.27-10.57-.63-11.68-5.31-8.16-13.57,10.5-24.39,20.9-48.77,31.44-73.13,1.8-4.11,3-9.74,9.33-8.1,5.22,1.33,4.46,6.45,4.46,10.5.1,12.62.38,25.18-.09,37.74-.32,7.59,1.61,10.5,9.93,10.63C465.78,321.38,465.78,321.79,454.62,347.92Z"/></svg>