<svg id="Camada_1" data-name="Camada 1" xmlns="http://www.w3.org/2000/svg" viewBox="0 0 841.89 595.28"><defs><style>.cls-1{fill:#fff;}</style></defs><path d="M496.46,207.69v0l0,0Z"/><path d="M496.46,207.69v0l0,0Z"/><path d="M496.48,207.68l0,0v0Z"/><path class="cls-1" d="M657.26,367c-2.14,46.17-40.12,84.16-86.29,86.29a90.66,90.66,0,0,1-95-90.59c0-.84,0-1.66,0-2.49a20.57,20.57,0,0,0-12.36-19.45l-104.88-45.4a20.29,20.29,0,0,0-21.9,3.6,90.49,90.49,0,0,1-72.55,23.61c-41.46-4.82-74.83-38.46-79.3-79.95a90.7,90.7,0,1,1,180.85-10.06v.14a20.68,20.68,0,0,0,12.27,19.2l106.86,46.23a20.36,20.36,0,0,0,21.58-3.33A90.67,90.67,0,0,1,657.26,367Z"/></svg>