<svg id="Camada_1" data-name="Camada 1" xmlns="http://www.w3.org/2000/svg" viewBox="0 0 841.89 595.28"><defs><style>.cls-1{fill:#cb3968;}</style></defs><path class="cls-1" d="M548.32,349.81c-14.73-29-39.68-42.83-72.38-42.74-43.8.14-87.59-.19-131.43.14a76.56,76.56,0,0,0-72.63,52.93c-10.13,31.17-1.81,58.33,19.22,82.38,20.27,16.78,43.61,22.08,69.66,21.32,37.15-1.1,74.39-.72,111.59-.14,27.11.38,49.77-8.32,67.41-29.17C559.41,408,563.33,379.31,548.32,349.81ZM346.13,398.1a13.6,13.6,0,1,1,13.63-13.58A13.57,13.57,0,0,1,346.13,398.1Zm42-1.19c-6.41.23-6-5.5-6.31-10.38-1.29-21.08-13.25-34.9-31.6-37a36,36,0,0,0-38.35,24.67c-5.83,17.54,1.58,33.89,20.32,44.27,4.21,2.29,9.61,4.16,6.36,10.09-3.2,5.73-8.18,2.39-12.43.57-20.75-9-31.84-31.56-27-54.84,4.55-21.47,24.39-37.1,47.19-37.05,26.63.05,49.49,23.09,48,48.72C394,390.45,394.42,396.71,388.11,396.91Zm97.77,35.71c-17.26,2.77-34.76.91-52.16,1.05-4.35.05-9.08-1-8.65-6.74.33-4.78,4.78-5.45,8.6-5.45,13.63-.14,27.3.14,40.93-.05,23.95-.38,40.06-15.06,40.11-36.19s-16.35-35.81-40.26-35.86c-24.48-.09-48.95.05-73.43-.19-4.74-.05-11.86,1.87-11.72-6.17s7.37-5.54,12-5.69c13.14-.33,26.34-.09,39.53-.09v.05c13.15,0,26.4-.48,39.54.14,26.16,1.15,45.23,20.27,46.47,45.8C528,408,511.08,428.65,485.88,432.62Z"/><path class="cls-1" d="M539.08,318a4.72,4.72,0,0,0,6.42-1.19c1-1.43,2.17-3.06,3.39-4.67,22.61-34.09,46-67.44,68.76-101.38,3.3-4.92,3-9.28.53-14.49-12.72-26.72-25.15-53.59-37.63-80.41-2-4.4-4.06-8.51-9.94-8.46-19.75.19-39.54-.24-59.29.38-10.42.33-16.54,6.93-16.49,17.45,0,11,6,17.59,17.35,18,9.83.33,19.65.43,29.43,0a13.42,13.42,0,0,1,12.93,8.26c5.79,13.87,11.72,27.73,18.6,41.07,4,7.75,3.3,13.25-1.77,20.32-18.79,26.44-36.86,53.4-55.22,80.13-.65,1-1.36,2.09-2,3.21a4.71,4.71,0,0,0,1.48,6.35Z"/><path class="cls-1" d="M601.72,466.42c-4,13.58-15.63,21.42-32.65,21.42q-77.24.07-154.38,0H410.1q-77.16,0-154.38,0c-17.06,0-28.68-7.84-32.7-21.42-3.63-12.48,1.2-26.44,11.67-33.75,11.28-7.89,24.81-6.51,37.15,3.34,3.77,3,6.21,7.22,8.27,11.57,1.72,3.59,5.49,4.4,10.47,4.07,4.25-.24,9.13.24,8.65,6.31s-5.4,5.45-9.56,5.59c-9.85.34-19.22,1.77-21.85-12.76-1.67-9.23-10.9-12.62-20.32-10.38-8.13,1.87-13.1,7.56-13.53,16-.48,9.66,4.4,16.26,13.86,18.5,4.5,1.1,9.28,1,14,1q74.09.08,148.26.05h4.59q74.16-.07,148.31-.05c4.63,0,9.46.09,14-1,9.38-2.24,14.35-8.84,13.87-18.5-.48-8.41-5.4-14.1-13.53-16-9.47-2.24-18.74,1.15-20.32,10.38-2.63,14.53-12.1,13.1-21.94,12.76-4.16-.14-9.14.34-9.57-5.59s4.4-6.55,8.71-6.31c4.92.33,8.79-.48,10.42-4.07,2.05-4.35,4.44-8.6,8.27-11.57,12.33-9.85,25.91-11.23,37.24-3.34A30.92,30.92,0,0,1,601.72,466.42Z"/><path class="cls-1" d="M316.68,301.56a3.49,3.49,0,0,0,1.93-4.4c-4.37-12.19-11.32-32.7-15.53-43.09-3.35-8.22-11.09-18.45-8.66-24.38,3.35-8.23,15.78-2.11,24.2-3.2,11-1.44,17.69-6.89,17.69-18s-6.75-17.74-17.74-18c-24-.47-48-.38-72,0-10.95.2-18,6.51-18.17,17.55s6.26,18.17,17.4,18c8.13-.09,10.23,4.45,12.72,10.28,8.69,20.61,20.2,52.15,29.21,73.82a3.5,3.5,0,0,0,4.63,1.85Z"/></svg>